<svg xmlns="http://www.w3.org/2000/svg" width="128" height="27" viewBox="0 0 128 27">
    <path fill="#FF7300" fill-rule="evenodd" d="M28.841 27H24.79v-8.382l-4.132-3.788-4.213 3.788V27h-4.05v-8.382L8.182 14.83l-4.131 3.788V27H0V16.684l8.182-7.093 6.238 5.319 6.238-5.319 8.182 7.093L28.841 27zM40.59 6.045l-3-2.982 3-3.063 3 2.982-3 3.063zM38.562 10.8h4.051V27h-4.051V10.8zM71.206 27h-4.047v-8.382l-4.942-3.788-4.861 3.788V27h-4.05V16.684l8.911-7.093 8.989 7.093V27zm11.265-16.2h12.233V3.627h4.051V27H82.471V10.8zm12.233 4.03h-8.182v8.14h8.182v-8.14zM127.996 27h-4.051v-8.382l-4.942-3.788-4.861 3.788V27h-4.046V16.684l8.911-7.093 8.992 7.093L127.996 27zm-8.986-2.129l-3-3 3-3 3.078 3-3.078 3z"/>
</svg>
