<svg xmlns="http://www.w3.org/2000/svg" xmlns:xlink="http://www.w3.org/1999/xlink" width="269.9" height="533.6" viewBox="0 0 269.9 533.6"><defs><linearGradient id="a" x1="0.5" x2="0.5" y2="1" gradientUnits="objectBoundingBox"><stop offset="0" stop-opacity="0.251"/><stop offset="1" stop-color="#fff" stop-opacity="0"/></linearGradient></defs><g transform="translate(-557.1 -2220)"><path d="M222,533.6H40a39.967,39.967,0,0,1-40-40V40A39.966,39.966,0,0,1,40,0H222a39.966,39.966,0,0,1,40,40V493.6a39.966,39.966,0,0,1-40,40ZM40,15A25.978,25.978,0,0,0,14,41V494.644a25.978,25.978,0,0,0,26,26H222a25.978,25.978,0,0,0,26-26V41a25.978,25.978,0,0,0-26-26Z" transform="translate(561 2220)" fill="#fff"/><path d="M0,121V90a4,4,0,0,1,4-4v39A4,4,0,0,1,0,121ZM265.9,52a4,4,0,0,1,4,4v52a4,4,0,0,1-4,4ZM0,73V42a4,4,0,0,1,4-4V77A4,4,0,0,1,0,73ZM0,17V4A4,4,0,0,1,4,0V21A4,4,0,0,1,0,17Z" transform="translate(557.1 2291)" fill="#fff"/><rect width="87" height="4" rx="2" transform="translate(649 2724)" fill="#fff"/><path d="M21,21A16,16,0,0,1,5,5V3.875H5a3.976,3.976,0,0,0-1.211-2.74A3.977,3.977,0,0,0,1,0H133V5a16,16,0,0,1-16,16ZM133,4.006V0h4.02A4.14,4.14,0,0,0,133,4.006Z" transform="translate(623.001 2233.9)" fill="#fff"/><g transform="translate(-5802 -5935)"><rect width="32" height="4.674" rx="2.337" transform="translate(6469.468 8172.475)" opacity="0.054"/><circle cx="4.674" cy="4.674" r="4.674" transform="translate(6508.877 8170.138)" fill="url(#a)"/><circle cx="2.003" cy="2.003" r="2.003" transform="translate(6511.548 8172.809)" fill="#035a81" opacity="0.257"/></g></g></svg>