<svg id="Symbol_1_1" data-name="Symbol 1 – 1" xmlns="http://www.w3.org/2000/svg" xmlns:xlink="http://www.w3.org/1999/xlink" width="269.9" height="533.6" viewBox="0 0 269.9 533.6">
  <defs>
    <linearGradient id="linear-gradient" x1="0.088" y1="0.03" x2="0.971" y2="0.972" gradientUnits="objectBoundingBox">
      <stop offset="0" stop-color="#e33372"/>
      <stop offset="0.16" stop-color="#f81b6c"/>
      <stop offset="1" stop-color="#01228d"/>
    </linearGradient>
    <linearGradient id="linear-gradient-2" x1="0.5" x2="0.5" y2="1" gradientUnits="objectBoundingBox">
      <stop offset="0" stop-opacity="0.251"/>
      <stop offset="1" stop-color="#545454" stop-opacity="0.251"/>
    </linearGradient>
  </defs>
  <g id="그룹_2" data-name="그룹 2" transform="translate(-307.1 -130)">
    <g id="사각형_2116" data-name="사각형 2116" transform="translate(311 130)" fill="#0e0e11" stroke="#3b3b45" stroke-width="2">
      <rect width="262" height="533.6" rx="40" stroke="none"/>
      <rect x="1" y="1" width="260" height="531.6" rx="39" fill="none"/>
    </g>
    <rect id="사각형_2117" data-name="사각형 2117" width="234" height="505.643" rx="26" transform="translate(325 144)" fill="url(#linear-gradient)"/>
    <path id="합치기_34" data-name="합치기 34" d="M21,21A16,16,0,0,1,5,5V3.875H5a3.976,3.976,0,0,0-1.211-2.74A3.977,3.977,0,0,0,1,0H133V5a16,16,0,0,1-16,16ZM133,4.006V0h4.02A4.14,4.14,0,0,0,133,4.006Z" transform="translate(373.001 143.9)" fill="#0e0e11"/>
    <path id="합치기_35" data-name="합치기 35" d="M0,121V90a4,4,0,0,1,4-4v39A4,4,0,0,1,0,121ZM265.9,52a4,4,0,0,1,4,4v52a4,4,0,0,1-4,4ZM0,73V42a4,4,0,0,1,4-4V77A4,4,0,0,1,0,73ZM0,17V4A4,4,0,0,1,4,0V21A4,4,0,0,1,0,17Z" transform="translate(307.1 201)" fill="#0e0e11"/>
    <g id="그룹_1125" data-name="그룹 1125" transform="translate(-6052 -8025)">
      <rect id="사각형_2101" data-name="사각형 2101" width="32" height="4.674" rx="2.337" transform="translate(6469.468 8172.475)" fill="#fff" opacity="0.054"/>
      <circle id="타원_1096" data-name="타원 1096" cx="4.674" cy="4.674" r="4.674" transform="translate(6508.877 8170.138)" fill="url(#linear-gradient-2)"/>
      <circle id="타원_1097" data-name="타원 1097" cx="2.003" cy="2.003" r="2.003" transform="translate(6511.548 8172.809)" fill="#035a81" opacity="0.257"/>
    </g>
    <rect id="사각형_2144" data-name="사각형 2144" width="87" height="4" rx="2" transform="translate(399 634)" fill="#0e0e11"/>
  </g>
</svg>
