<svg xmlns="http://www.w3.org/2000/svg" xmlns:xlink="http://www.w3.org/1999/xlink" width="556" height="36" viewBox="0 0 556 36"><defs><linearGradient id="a" x1="0.5" x2="0.5" y2="1" gradientUnits="objectBoundingBox"><stop offset="0" stop-color="#fff"/><stop offset="1" stop-color="#fafbfc"/></linearGradient><filter id="b" x="0" y="0" width="556" height="36" filterUnits="userSpaceOnUse"><feOffset input="SourceAlpha"/><feGaussianBlur stdDeviation="1" result="c"/><feFlood flood-opacity="0.149"/><feComposite operator="in" in2="c"/><feComposite in="SourceGraphic"/></filter></defs><g transform="translate(3 3)"><g transform="matrix(1, 0, 0, 1, -3, -3)" filter="url(#b)"><path d="M5,0H545a5,5,0,0,1,5,5V30a0,0,0,0,1,0,0H0a0,0,0,0,1,0,0V5A5,5,0,0,1,5,0Z" transform="translate(3 3)" fill="url(#a)"/></g><circle cx="4" cy="4" r="4" transform="translate(36 11)" fill="#29cf42"/><circle cx="4" cy="4" r="4" transform="translate(23 11)" fill="#ffc02f"/><circle cx="4" cy="4" r="4" transform="translate(10 11)" fill="#ff554f"/></g></svg>